PathFileType	4	(X/Y/Z)	./resultDataOpenSim/trcMotMarkerGrf/sub10/qtm-01-04.trc
DataRate	CameraRate	NumFrames	NumMarkers	Units	OrigDataRate	OrigDataStartFrame	OrigNumFrames
250.000000	250.000000	7	24	m	250.000000	1	467
Frame#	Time	L.Toe.Tip			R.Toe.Tip			L.Ankle.Lat			R.Ankle.Lat			L.Ankle.Med			R.Ankle.Med			L.Heel			R.Heel			L.Knee.Lat			R.Knee.Lat			L.Knee.Med			R.Knee.Med			L.Thigh.Upper			R.Thigh.Upper			L.ASIS			R.ASIS			V.Sacral			L.Acromium			R.Acromium			C7			L.Elbow			R.Elbow			L.Wrist.Lat			R.Wrist.Lat
		X1	Y1	Z1	X2	Y2	Z2	X3	Y3	Z3	X4	Y4	Z4	X5	Y5	Z5	X6	Y6	Z6	X7	Y7	Z7	X8	Y8	Z8	X9	Y9	Z9	X10	Y10	Z10	X11	Y11	Z11	X12	Y12	Z12	X13	Y13	Z13	X14	Y14	Z14	X15	Y15	Z15	X16	Y16	Z16	X17	Y17	Z17	X18	Y18	Z18	X19	Y19	Z19	X20	Y20	Z20	X21	Y21	Z21	X22	Y22	Z22	X23	Y23	Z23	X24	Y24	Z24

1	0	-1.5350895	0.037997585	-0.17064344	-0.97161044	0.08536463	-0.010352814	-1.6653776	0.064300425	-0.20298252	-1.111766	0.061244723	-0.0050898721	-1.6678924	0.084668516	-0.11821336	-1.0865059	0.10258136	-0.078096983	NaN	NaN	NaN	-1.1409604	0.027723243	-0.070183136	-1.5282417	0.42877115	-0.2336182	-1.2141597	0.44785632	0.040704836	-1.5312648	0.40734212	-0.11210263	-1.1819553	0.46300086	-0.083827244	-1.4277294	0.81089504	-0.29061589	-1.370737	0.82970677	0.090615452	-1.348963	0.91354488	-0.23438651	-1.3116965	0.92027306	0.0097075061	-1.5270049	0.9305663	-0.083284358	-1.345968	1.3863647	-0.25342065	-1.3779105	1.3774523	0.069274321	-1.4417613	1.4184939	-0.10443914	-1.3993193	1.0447171	-0.3368568	-1.5503794	1.0786764	0.095073723	-1.2057278	0.89314843	-0.29599796	-1.4894688	0.84532407	0.14964298
2	0.004	-1.535123	0.037913419	-0.17065667	-0.95864794	0.087556953	-0.010021175	-1.6652997	0.064574655	-0.20288235	-1.0987944	0.061519057	-0.0034819667	-1.6673132	0.085169028	-0.11842622	-1.074244	0.10328405	-0.076654004	NaN	NaN	NaN	-1.1273582	0.027750336	-0.06854958	-1.5250709	0.42797504	-0.23359118	-1.2075605	0.44661617	0.041550619	-1.5282835	0.40654144	-0.11194473	-1.1757267	0.46154216	-0.083218348	-1.423025	0.80967494	-0.29052955	-1.3655143	0.82777173	0.090892467	-1.3441202	0.91225607	-0.234269	-1.3061527	0.91892103	0.0098997695	-1.5219631	0.92857887	-0.082769342	-1.3412734	1.384762	-0.25353087	-1.3729037	1.3755431	0.069265622	-1.4370294	1.4169393	-0.10432339	-1.3933911	1.0428497	-0.33649913	-1.5461361	1.0766318	0.094329481	-1.1980845	0.89328805	-0.29548742	-1.4864227	0.84363987	0.14977746
3	0.008	-1.5352076	0.037842812	-0.17064789	-0.94586802	0.089694629	-0.0096533934	-1.6652772	0.064883887	-0.20275827	-1.0859626	0.061811466	-0.0018460953	-1.6662885	0.085826106	-0.11849838	-1.0622327	0.10397984	-0.075203575	NaN	NaN	NaN	-1.114245	0.027802331	-0.066504218	-1.521944	0.4271765	-0.23353501	-1.2010023	0.44537261	0.042452215	-1.5253176	0.40574619	-0.11177021	-1.1695521	0.46011038	-0.082568303	-1.4181974	0.80843319	-0.29040154	-1.359948	0.82594013	0.091255564	-1.3392595	0.91094509	-0.23411615	-1.3005779	0.91757391	0.010075978	-1.5168157	0.9265448	-0.082194278	-1.3365234	1.3831621	-0.25360141	-1.3678509	1.3736488	0.069264806	-1.4322954	1.4153698	-0.10425732	-1.3873655	1.0410108	-0.33611531	-1.5418182	1.0747377	0.093743969	-1.1904562	0.89342401	-0.29497692	-1.4833449	0.84194349	0.14991449
4	0.012	-1.5353559	0.037791078	-0.17060664	-0.93341995	0.091750275	-0.0092793621	-1.6653166	0.065268667	-0.20258556	-1.0733869	0.062136504	-0.00016543506	-1.6646339	0.086719325	-0.11834124	-1.0506097	0.10464343	-0.073742533	NaN	NaN	NaN	-1.1016543	0.027881723	-0.063958635	-1.5188398	0.42636627	-0.23344668	-1.1943865	0.44416827	0.043444724	-1.5222746	0.40495292	-0.11159839	-1.1634255	0.45872173	-0.081856307	-1.4132159	0.80713685	-0.29020494	-1.353774	0.82426655	0.091780432	-1.3343499	0.90960366	-0.23392277	-1.2949549	0.91623502	0.010245554	-1.511402	0.92442048	-0.081448805	-1.331692	1.3815652	-0.25362008	-1.3627444	1.3717882	0.069268687	-1.4275376	1.4137801	-0.10422694	-1.3812069	1.0391803	-0.33572286	-1.5372863	1.0731463	0.093510665	-1.182848	0.89354881	-0.29445336	-1.4802089	0.84024064	0.15005376
5	0.016	-1.535528	0.03775049	-0.17054296	-0.92143137	0.093714262	-0.0089786143	-1.6653779	0.065754691	-0.20236034	-1.0611751	0.062486139	0.0015525267	-1.6626263	0.087750866	-0.11800219	-1.0394279	0.10523882	-0.072280172	NaN	NaN	NaN	-1.0894548	0.027966727	-0.061159199	-1.5157058	0.42553042	-0.23332883	-1.1875712	0.44305644	0.044533015	-1.5190506	0.40414988	-0.11146287	-1.1572886	0.45739002	-0.081081443	-1.4081464	0.80578185	-0.2899609	-1.3469023	0.82276245	0.092500192	-1.3293776	0.90823617	-0.23370389	-1.2893	0.91490839	0.01042824	-1.5056319	0.92221745	-0.080445583	-1.3267949	1.3799757	-0.25360669	-1.3576221	1.3699782	0.069272051	-1.4227408	1.4121807	-0.10418967	-1.3749896	1.037331	-0.33535097	-1.5324319	1.071878	0.093717156	-1.1752763	0.89366178	-0.29390318	-1.4770104	0.83855069	0.15019785
6	0.02	-1.535661	0.037704673	-0.17047916	-0.90995377	0.095579288	-0.0087871	-1.6653982	0.066328226	-0.20210112	-1.0493842	0.062833374	0.0032975023	-1.6607985	0.088705346	-0.11762892	-1.028687	0.10574025	-0.070829237	NaN	NaN	NaN	-1.0776588	0.028031115	-0.058320872	-1.5125003	0.42466922	-0.23317772	-1.1805316	0.44204976	0.045688409	-1.5156498	0.40331237	-0.11135933	-1.151095	0.45612737	-0.080257551	-1.4030612	0.80440409	-0.28972821	-1.3396464	0.82135733	0.093328298	-1.3243502	0.90684878	-0.23347563	-1.2836324	0.91359205	0.010629813	-1.4996363	0.92003294	-0.079262064	-1.3218598	1.3783976	-0.25359033	-1.3525303	1.3682109	0.069281282	-1.4179015	1.4105846	-0.10412906	-1.3688006	1.035465	-0.33499745	-1.5272887	1.0707178	0.094199329	-1.1677525	0.89377671	-0.29332921	-1.4737476	0.8368901	0.15035563
7	0.024	-1.5357211	0.037641036	-0.17042847	-0.89896636	0.097330208	-0.0086678986	-1.6653286	0.066947464	-0.20182636	-1.0380163	0.063160611	0.0050792502	-1.6594527	0.089461447	-0.11730754	-1.0183716	0.10613255	-0.069395819	NaN	NaN	NaN	-1.0663397	0.028051979	-0.055452998	-1.5092209	0.42380794	-0.23299683	-1.1733736	0.4411241	0.046864957	-1.5121584	0.4024239	-0.11123944	-1.1448509	0.45493708	-0.079405543	-1.3979897	0.80303836	-0.28953701	-1.3326263	0.81991943	0.094084936	-1.3192812	0.90544767	-0.23325198	-1.277954	0.91227968	0.010843661	-1.4936932	0.91798026	-0.078121354	-1.3169062	1.3768348	-0.2535806	-1.347481	1.3664604	0.069307683	-1.4130253	1.4089979	-0.10405303	-1.3626618	1.0336029	-0.33464206	-1.5219905	1.0693837	0.094699379	-1.1602761	0.8939067	-0.29274876	-1.4704122	0.83526885	0.15053307
